<svg width="675" height="708" viewBox="0 0 675 708" fill="none" xmlns="http://www.w3.org/2000/svg">
<g clip-path="url(#clip0)">
<path d="M463.7 155.1C456.7 153.7 451.2 147.5 449.3 140.7C447.4 133.8 448.7 126.3 451.6 119.8C453.3 116 455.5 112.3 458.6 109.6C461.7 106.9 465 105.2 469.2 105.5C470.6 98.3001 477.5 93.8001 483.9 90.3001C493.3 85.3001 503.4 80.8001 514 81.0001C524.6 81.1001 535.1 86.5001 538.3 96.6001C547 93.9001 556 91.7001 565.1 92.2001C574.2 92.6001 583.5 96.0001 589.4 102.9C598.6 113.6 597.7 130 591.8 142.8C584.8 157.9 570.8 170.4 554.3 172.3C549.1 181.9 538 186.6 527.3 189C516.6 191.4 505.3 192.1 494.5 189.9C483.7 187.7 473.4 182.5 466.1 174.2C461.7 168.9 461.3 161.5 463.7 155.1Z" fill="white"/>
<path d="M332.3 410.5C362.3 406.5 402.3 383.5 400.3 366.5C398.3 349.5 384.3 318.5 365.3 324.5C346.3 330.5 336.3 343.5 319.3 343.5C302.3 343.5 332.3 410.5 332.3 410.5Z" fill="url(#paint0_linear)"/>
<path d="M333.2 408.9C333.6 408.7 334 408.5 334.4 408.4C334.5 408.4 334.6 408.4 334.7 408.3L335.1 408.2L336.1 408C337.5 407.8 338.8 407.5 340.2 407.2C342.9 406.6 345.6 405.9 348.2 405.1C353.5 403.5 358.7 401.6 363.8 399.4C368.9 397.1 373.8 394.6 378.6 391.7C381 390.3 383.3 388.7 385.5 387C387.7 385.3 389.8 383.6 391.8 381.6C393.8 379.7 395.6 377.6 397 375.3C398.4 373 399.5 370.5 399.6 367.8C399.6 366.5 399.4 365.1 399.2 363.8C399 362.4 398.7 361.1 398.4 359.7C397.8 357 397 354.3 396 351.7C394.1 346.4 391.8 341.3 388.6 336.7C387 334.4 385.3 332.2 383.3 330.3C381.3 328.4 379.1 326.6 376.6 325.5C374.1 324.4 371.3 323.9 368.6 324.2C367.2 324.4 365.9 324.7 364.6 325.2C363.3 325.7 362 326.1 360.7 326.7C355.5 328.8 350.7 331.6 345.9 334.5C341.1 337.4 336.2 340.3 330.8 342.3C328.1 343.3 325.3 343.9 322.4 344.3L320.2 344.4L319.1 344.5C318.8 344.5 318.5 344.5 318.2 344.6C317.1 344.8 316.3 345.6 315.8 346.7C315.3 347.8 315.1 349.1 315 350.4C314.9 351.7 315 353.1 315.1 354.4C315.4 357.1 315.9 359.8 316.5 362.6C317.7 368 319.4 373.4 321.2 378.6C323 383.9 325.1 389.1 327.2 394.3C328.3 396.9 329.3 399.5 330.5 402L332.2 405.8L333.1 407.7L333.5 408.7L333.7 409.2L333.8 409.4C333.8 409.4 333.8 409.5 333.8 409.4C333.8 409.3 333.7 409.2 333.6 409.1C333.6 409.1 333.4 409 333.2 408.9ZM331.4 412.2C331.2 412 330.9 411.8 330.8 411.6C330.7 411.5 330.6 411.3 330.6 411.2L330.5 411.1L330.4 410.9L330.2 410.4L329.8 409.4L329 407.4L327.4 403.5C326.3 400.9 325.3 398.3 324.3 395.6C322.3 390.3 320.4 385 318.6 379.6C316.9 374.2 315.3 368.8 314.1 363.2C313.5 360.4 313 357.6 312.8 354.7C312.7 353.2 312.6 351.8 312.8 350.3C312.9 348.8 313.1 347.2 313.9 345.7C314.3 344.9 314.8 344.2 315.5 343.5C316.2 342.9 317.1 342.4 318 342.3C318.5 342.2 318.9 342.2 319.3 342.1H320.3L322.3 342C325 341.7 327.6 341.2 330.2 340.3C335.3 338.5 340.2 335.7 345 332.9C349.9 330.1 354.9 327.3 360.2 325.2C361.5 324.6 362.9 324.2 364.2 323.7C365.5 323.2 367.1 322.9 368.5 322.7C371.5 322.4 374.6 323 377.2 324.3C379.9 325.5 382.2 327.4 384.3 329.4C386.4 331.4 388.1 333.7 389.7 336.1C391.3 338.5 392.7 341 393.9 343.5C395.2 346 396.3 348.7 397.3 351.3C398.3 354 399.1 356.7 399.8 359.4C400.1 360.8 400.4 362.2 400.7 363.6C400.9 365 401.2 366.4 401.2 367.9C401.2 370.9 400 373.8 398.6 376.3C397.1 378.8 395.3 381 393.3 383.1C391.3 385.2 389.2 387.1 386.9 388.8C384.7 390.6 382.4 392.2 380 393.8C375.2 396.9 370.2 399.6 365.1 402C360 404.4 354.7 406.5 349.3 408.3C346.6 409.2 343.9 410 341.1 410.7C339.7 411 338.3 411.4 336.9 411.6L335.8 411.8L335.5 411.9L335.1 412L334.4 412.1C333.3 412.2 332.3 412.2 331.4 412.2Z" fill="#543930"/>
<path d="M332.3 408.9C331.2 406.3 324.1 390.6 319.2 374.6C326.9 372.2 334.5 369.2 341.2 366.5C351.5 362.4 360.4 358.9 366.2 358.9C367.9 358.9 369.2 359.2 370.3 359.8C382.7 366.5 386.1 377.9 387.1 386.3C373.1 397.8 350.8 406.4 332.3 408.9Z" fill="#DB957C"/>
<path d="M215.3 554.5C215.3 574.5 211.3 591.5 207.3 601.5C203.3 611.5 229.3 645.5 255.3 623.5C281.3 601.5 284.3 558.5 282.3 537.5C280.3 516.5 215.3 554.5 215.3 554.5Z" fill="#FBCA82"/>
<path d="M215.7 554.8C215.7 556.2 215.8 557.5 215.7 559C215.7 560.5 215.6 562 215.6 563.4C215.5 566.4 215.2 569.3 214.9 572.2C214.3 578.1 213.3 583.9 211.8 589.7C211.1 592.6 210.3 595.4 209.3 598.3C209.1 599 208.8 599.7 208.6 600.4C208.4 601.1 208 601.9 207.9 602.4C207.6 603.6 207.7 605 208 606.3C208.6 609 209.9 611.6 211.5 614C213.1 616.4 214.9 618.6 217 620.6C221.1 624.6 226.1 627.7 231.7 629.1C234.5 629.8 237.3 629.9 240.1 629.6C242.9 629.2 245.6 628.4 248.2 627.1C250.8 625.9 253.1 624.1 255.3 622.3C257.5 620.4 259.5 618.3 261.4 616.1C265.1 611.7 268.3 606.7 270.9 601.5C276.1 591 279.1 579.6 280.7 568C281.5 562.2 281.9 556.4 282 550.5C282 547.6 282 544.6 281.8 541.7C281.7 540.2 281.6 538.8 281.5 537.3C281.3 536 280.9 534.7 279.9 533.8C279 532.9 277.7 532.4 276.4 532.1C275 531.8 273.6 531.8 272.2 531.9C269.3 532.1 266.5 532.6 263.7 533.4C258.1 534.9 252.6 536.9 247.1 539.2C241.7 541.5 236.4 544 231.1 546.6C228.5 547.9 225.9 549.3 223.3 550.6L219.4 552.7L217.5 553.8L216.5 554.3L216 554.6L215.7 554.8C215.7 554.9 215.7 554.9 215.7 554.8ZM214.9 554.3C215 554.2 215 554.2 215.1 554.1C215.2 554 215.3 554 215.3 554L215.5 553.9L216 553.6L217 553L218.9 551.9L222.8 549.8C225.4 548.4 228 547 230.6 545.7C235.9 543 241.2 540.5 246.6 538.1C252 535.8 257.6 533.6 263.3 532.1C266.2 531.3 269.1 530.7 272.1 530.5C273.6 530.4 275.2 530.4 276.7 530.8C278.2 531.1 279.8 531.7 281 532.9C282.2 534.1 282.8 535.7 283 537.3C283.2 538.8 283.3 540.3 283.4 541.8C283.6 544.8 283.6 547.7 283.6 550.7C283.5 556.6 283.1 562.5 282.3 568.4C280.7 580.1 277.7 591.8 272.5 602.5C269.9 607.8 266.7 612.9 262.8 617.5C260.8 619.7 258.8 621.9 256.5 623.9C254.2 625.8 251.8 627.7 249.1 629C246.4 630.4 243.4 631.3 240.4 631.7C237.4 632.1 234.3 631.9 231.3 631.2C225.3 629.8 220 626.4 215.8 622.2C213.6 620.1 211.7 617.7 210.1 615.2C208.5 612.7 207.1 609.9 206.4 606.9C206.1 605.4 205.9 603.8 206.3 602.1C206.5 601.2 206.8 600.7 207.1 599.9C207.4 599.2 207.6 598.5 207.9 597.8C208.9 595 209.7 592.2 210.4 589.4C211.9 583.7 212.9 578 213.7 572.2C214.1 569.3 214.4 566.4 214.6 563.4C214.7 561.9 214.8 560.5 214.8 559C214.7 557.5 214.8 555.8 214.9 554.3Z" fill="#543930"/>
<path d="M237.3 629.8C226.3 629.8 217.1 622 212.1 614.7C208.7 609.6 207.1 604.6 208.2 601.9C210.1 597.2 216.2 580 216.3 555.1C218.6 553.8 228.6 548.1 240.1 542.8L245.8 550.4C244.9 567.8 240.7 580.5 237.6 589.8C233.3 602.9 230.6 610.8 242.3 616.9C246.5 619.1 251.2 620.5 256.5 621.1C255.9 621.7 255.3 622.2 254.7 622.7C249.1 627.5 243.3 629.8 237.3 629.8Z" fill="#DB957C"/>
<path d="M292.5 326.4C280.5 333.9 284.5 349.4 295.5 354.4C306.5 359.4 340.5 373.4 353.5 354.4C366.5 335.4 373.5 316.4 366.5 301.4C359.5 286.4 352.5 299.4 352.5 306.4C352.5 313.4 344.5 335.4 330.5 331.4C316.5 327.4 300.5 321.4 292.5 326.4Z" fill="#F6EBE5"/>
<path d="M292.7 326.7C290.5 328.1 288.6 330 287.3 332.2C286 334.4 285.5 337.1 285.6 339.6C285.9 344.8 288.9 349.7 293.3 352.5C295.5 353.9 298 354.8 300.4 355.9C302.9 356.9 305.3 357.9 307.9 358.7C312.9 360.4 318.1 361.9 323.3 362.7C328.5 363.5 333.9 363.8 339.1 362.8C341.7 362.3 344.2 361.4 346.5 360.1C348.8 358.8 350.8 357.1 352.4 355C355.5 350.7 358.3 346.1 360.8 341.5C363.3 336.8 365.4 331.9 366.9 326.8C368.4 321.7 369.2 316.4 368.7 311.1L368.6 310.1L368.4 309.1L368.1 307.1C367.9 306.5 367.7 305.8 367.6 305.2L367.3 304.2C367.2 303.9 367.1 303.6 366.9 303.3L366.2 301.5C365.9 300.9 365.6 300.3 365.3 299.7C364.7 298.5 364 297.4 363.1 296.5C362.2 295.5 361.2 294.7 359.9 294.6C358.7 294.5 357.5 295.1 356.6 296C354.8 297.9 353.7 300.4 353.1 302.9C352.9 303.5 352.8 304.2 352.8 304.8C352.7 305.5 352.7 306.1 352.7 306.8C352.6 308.2 352.4 309.5 352.1 310.8C351.5 313.4 350.6 316 349.4 318.4C348.3 320.8 346.9 323.2 345.3 325.3C343.6 327.4 341.6 329.4 339.2 330.6C338 331.2 336.7 331.7 335.3 331.9C333.9 332.1 332.5 332 331.2 331.7C328.6 331 326 330.2 323.5 329.5C318.4 328 313.3 326.5 308 325.5C305.4 325 302.8 324.7 300.1 324.7C297.6 325 294.9 325.4 292.7 326.7ZM292.3 326C294.7 324.5 297.5 324.1 300.2 324.1C302.9 324.1 305.6 324.4 308.2 324.9C313.5 325.9 318.6 327.5 323.7 329C326.3 329.8 328.8 330.6 331.4 331.2C332.7 331.5 334 331.6 335.2 331.4C336.5 331.2 337.7 330.8 338.9 330.2C341.2 329 343.2 327.2 344.8 325.1C346.4 323 347.8 320.7 348.9 318.3C350 315.9 350.9 313.4 351.5 310.8C351.8 309.5 352.1 308.2 352.1 306.9C352.1 306.3 352.1 305.6 352.2 304.9C352.3 304.2 352.4 303.6 352.6 302.9C353.3 300.3 354.3 297.7 356.3 295.7C357.3 294.7 358.6 294 360.1 294.1C361.6 294.3 362.7 295.2 363.7 296.2C364.6 297.2 365.4 298.4 366 299.6C366.3 300.2 366.6 300.8 366.9 301.4L367.7 303.3C367.8 303.6 368 303.9 368.1 304.2L368.4 305.2C368.6 305.8 368.8 306.5 368.9 307.1L369.3 309.1L369.5 310.1L369.6 311.1C370.1 316.5 369.3 321.9 367.8 327C366.3 332.2 364.1 337.1 361.6 341.8C359.1 346.5 356.3 351.1 353.2 355.5C351.5 357.7 349.5 359.5 347.1 360.8C344.7 362.2 342.1 363.1 339.5 363.6C334.2 364.7 328.7 364.4 323.4 363.6C318.1 362.8 312.9 361.3 307.8 359.6C305.3 358.7 302.8 357.8 300.3 356.8C297.8 355.7 295.3 354.8 293 353.3C288.4 350.3 285.2 345.1 284.9 339.6C284.7 336.9 285.4 334.1 286.7 331.7C287.9 329.4 290 327.5 292.3 326Z" fill="#7D7774"/>
<path d="M332 363.5C329.6 363.5 327 363.3 324.2 362.9L326.9 351.5C345.1 345.1 351.8 333.9 353.5 330.6C355.1 327.4 359 324.9 362.1 324.9C362.9 324.9 364 325.1 364.8 325.9C365.6 326.8 365.9 328.2 365.7 330C363.1 337.3 358.9 345.4 353 354C348.8 360.4 341.7 363.5 332 363.5Z" fill="#E3D9D3"/>
<path d="M120.3 396.5C120.3 396.5 88.3 415.5 72.3 421.5C56.3 427.5 53.3 444.5 65.3 459.5C77.3 474.5 95.3 478.5 119.3 467.5C119.3 467.5 98.3 514.5 130.3 540.5C162.3 566.5 211.3 574.5 254.3 562.5C297.3 550.5 337.3 524.5 346.3 480.5C355.3 436.5 352.3 354.5 330.3 317.5C330.3 317.5 364.9 285.5 367.3 254.5C368.3 241.5 367.3 237.5 367.3 237.5C367.3 237.5 377.3 234.5 374.3 223.5C371.3 212.5 358.3 219.5 358.3 219.5L352.3 216.5C352.3 216.5 351.3 204.5 341.3 204.5C331.3 204.5 329.3 213.5 331.3 220.5C333.3 227.5 333.3 227.5 333.3 227.5C333.3 227.5 338.3 257.5 309.3 266.5C280.3 275.5 262.3 250.5 213.3 259.5C164.3 268.5 138.3 305.5 134.3 334.5C130.3 363.5 120.3 396.5 120.3 396.5Z" fill="url(#paint1_linear)"/>
<path d="M120.7 396.9C120.2 397.3 119.9 397.4 119.5 397.7L118.4 398.3L116.2 399.6L111.9 402.1C109 403.8 106.1 405.4 103.2 407C97.4 410.2 91.5 413.4 85.5 416.3C82.5 417.8 79.5 419.2 76.4 420.5C74.9 421.2 73.3 421.7 71.8 422.4C71.1 422.7 70.3 423 69.6 423.4L67.5 424.6C64.8 426.4 62.5 428.8 60.9 431.6C59.3 434.4 58.6 437.7 58.6 440.9C58.6 444.1 59.3 447.4 60.5 450.4C61.8 453.4 63.5 456.3 65.5 458.9C69.6 464.1 74.8 468.4 80.9 470.8C87 473.2 93.8 473.8 100.3 472.8C106.8 471.9 113.2 469.8 119.2 467L120.4 466.5L119.9 467.7C117.9 472.5 116.5 477.6 115.4 482.7C114.9 485.3 114.4 487.8 114.1 490.4C113.8 493 113.6 495.6 113.5 498.2C113.4 500.8 113.5 503.4 113.8 506C114 507.3 114.1 508.6 114.3 509.9L114.6 511.8L115 513.7C116.2 518.8 118.1 523.6 120.9 527.9C123.6 532.3 127.1 536.2 131.1 539.4L137.4 544.1L144 548.3C152.9 553.7 162.6 557.8 172.6 560.8C192.6 566.8 214 568.2 234.7 565.4C236 565.2 237.3 565.1 238.6 564.9L242.5 564.2L246.4 563.5L250.2 562.6C255.3 561.5 260.3 559.9 265.3 558.2C275.2 554.8 284.9 550.7 294.1 545.6C303.2 540.5 311.9 534.4 319.5 527.2C327.1 520 333.6 511.6 338.4 502.3C340.8 497.6 342.8 492.8 344.3 487.8C345.8 482.8 346.8 477.6 347.6 472.4C349.2 462 350.1 451.5 350.6 441C351 430.5 351 419.9 350.6 409.4C350.2 398.9 349.3 388.4 347.9 378C346.5 367.6 344.6 357.2 341.9 347C340.5 341.9 338.9 336.9 337.1 332C335.2 327.1 333 322.3 330.4 317.8L330.2 317.5L330.5 317.2C336 312 341.1 306.3 345.8 300.3C350.5 294.3 354.8 288.1 358.5 281.4C362.1 274.7 365.1 267.7 366.6 260.3C367.4 256.6 367.5 252.8 367.7 249C367.8 247.1 367.8 245.2 367.8 243.3C367.8 241.4 367.7 239.5 367.4 237.7L367.3 237.2L367.7 237.1C370.4 236.1 372.9 234.1 374.1 231.5C374.7 230.2 374.9 228.7 374.9 227.2C374.8 226.5 374.8 225.7 374.6 225L374.4 223.9C374.3 223.5 374.2 223.2 374.1 222.8C373.6 221.4 372.8 220.1 371.7 219.3C370.6 218.4 369.1 218 367.7 217.9C364.8 217.8 361.8 218.7 359.1 220L358.9 220.1L358.7 220L352.7 217L352.5 216.9V216.6C352.3 214.7 351.7 212.8 350.9 211.1C350.1 209.4 348.9 207.8 347.4 206.7C345.9 205.6 344 205.1 342.1 205.1C340.2 205.1 338.3 205.5 336.6 206.4C335 207.3 333.7 208.7 332.9 210.5C332.1 212.2 331.8 214.1 331.9 216.1C331.9 217.1 332 218 332.2 219C332.4 219.9 332.6 220.9 332.9 221.8L334.6 227.5C335.1 231 335.1 234.4 334.7 237.9C334.3 241.3 333.5 244.8 332.2 248C330.9 251.2 329.1 254.3 326.8 256.9C324.5 259.6 321.8 261.8 318.8 263.6C315.8 265.4 312.6 266.7 309.2 267.7C305.9 268.7 302.4 269.3 298.9 269.4C291.9 269.8 285 268.3 278.4 266.5C271.8 264.7 265.3 262.7 258.7 261.2C255.4 260.5 252.1 259.8 248.7 259.4C245.3 259 242 258.7 238.6 258.5C231.8 258.3 225.1 258.7 218.4 259.7C216.7 260 215.1 260.2 213.4 260.6L208.5 261.7C205.2 262.3 202 263.5 198.7 264.5C197.1 264.9 195.5 265.6 193.9 266.2L189.2 268.1L184.7 270.3C183.2 271 181.7 271.8 180.2 272.7L175.9 275.3C175.2 275.7 174.5 276.2 173.8 276.7L171.7 278.2C168.9 280.1 166.4 282.4 163.8 284.5C162.5 285.6 161.4 286.8 160.1 288L158.3 289.8C157.7 290.4 157.2 291.1 156.6 291.7C155.5 293 154.4 294.2 153.3 295.5L150.2 299.6C149.1 300.9 148.3 302.4 147.4 303.8C146.5 305.2 145.5 306.6 144.8 308.1C144 309.6 143.1 311.1 142.4 312.6L140.3 317.2C139.1 320.4 137.9 323.5 137.1 326.8C136.9 327.6 136.6 328.4 136.5 329.3L136 331.8C135.7 333.5 135.4 335.1 135.2 336.8C134.2 343.6 132.9 350.3 131.5 357C130.1 363.7 128.5 370.3 126.8 376.9C126 380.2 125.1 383.5 124.2 386.8L122.8 391.7L122.1 394.2L121.7 395.4C121 395.9 121 396.2 120.7 396.9ZM119.9 396.2L122.6 386.5C123.5 383.2 124.4 379.9 125.2 376.6C126.9 370 128.4 363.4 129.8 356.7C131.2 350 132.4 343.3 133.4 336.6C133.6 334.9 133.9 333.2 134.2 331.5L134.7 329C134.9 328.2 135.1 327.3 135.4 326.5C136.2 323.2 137.4 319.9 138.6 316.7C141.2 310.3 144.6 304.3 148.5 298.7L151.6 294.6C152.7 293.3 153.8 292 154.9 290.7C155.5 290.1 156 289.4 156.6 288.8L158.4 287C159.6 285.8 160.8 284.5 162.1 283.4C164.7 281.2 167.3 278.8 170.1 276.9L172.2 275.4C172.9 274.9 173.6 274.4 174.3 273.9L178.7 271.2C180.1 270.3 181.7 269.5 183.2 268.7L187.8 266.4L192.6 264.5C194.2 263.9 195.8 263.2 197.4 262.7C200.7 261.7 203.9 260.5 207.3 259.9L212.3 258.8C214 258.4 215.7 258.2 217.4 257.9C224.2 256.9 231.1 256.5 238 256.7C241.4 256.8 244.9 257.1 248.3 257.6C251.7 258.1 255.1 258.7 258.4 259.4C265.1 260.9 271.6 262.9 278.2 264.7C284.7 266.5 291.4 267.8 298.1 267.5C301.4 267.4 304.7 266.8 308 265.9C311.2 265 314.3 263.7 317.2 262.1C320.1 260.4 322.7 258.3 324.9 255.8C327.1 253.3 328.8 250.4 330.1 247.3C332.6 241.1 333.4 234.2 332.6 227.6V227.7L331 222C330.7 221.1 330.5 220.1 330.3 219.1C330.1 218.1 330 217.1 330 216C330 213.9 330.3 211.9 331.1 209.9C331.9 208 333.4 206.3 335.3 205.3C337.2 204.3 339.3 203.9 341.3 203.9C343.4 203.9 345.5 204.5 347.2 205.7C348.9 206.9 350.2 208.6 351.1 210.5C352 212.4 352.5 214.3 352.7 216.4L352.4 216L358.4 219H357.9C359.3 218.3 360.8 217.7 362.3 217.3C363.8 216.9 365.4 216.7 367 216.8C368.6 216.9 370.3 217.4 371.6 218.4C372.9 219.4 373.8 220.9 374.3 222.4C374.4 222.8 374.6 223.2 374.6 223.5L374.8 224.7C375 225.5 375 226.3 375.1 227.1C375.1 228.7 374.9 230.3 374.2 231.8C373.5 233.3 372.5 234.6 371.3 235.6C370.1 236.6 368.7 237.4 367.1 238L367.4 237.4C367.8 239.4 367.8 241.3 367.9 243.2C367.9 245.1 367.9 247 367.8 248.9C367.6 252.7 367.4 256.6 366.7 260.3C365.2 267.9 362.2 275 358.5 281.7C354.8 288.4 350.5 294.7 345.7 300.8C340.9 306.8 335.9 312.5 330.3 317.8L330.4 317.2C333.1 321.8 335.3 326.6 337.2 331.5C339.1 336.4 340.7 341.5 342.1 346.6C344.8 356.8 346.8 367.2 348.2 377.7C349.6 388.2 350.5 398.7 350.9 409.2C351.3 419.7 351.4 430.3 350.9 440.9C350.4 451.4 349.5 462 347.9 472.4C347.1 477.6 346.1 482.8 344.6 487.9C343.1 493 341.1 497.9 338.7 502.7C333.9 512.2 327.3 520.7 319.7 528C312.1 535.3 303.4 541.5 294.2 546.8C285 552.1 275.3 556.3 265.3 559.8C260.3 561.5 255.3 563.1 250.1 564.4L246.2 565.4L242.3 566.2L238.4 567C237.1 567.3 235.8 567.4 234.5 567.6C213.5 570.7 191.8 569.9 171.1 564.2C168.5 563.4 166 562.6 163.4 561.8L155.9 558.9L148.6 555.5L141.5 551.6C139.2 550.2 137 548.7 134.7 547.2C132.5 545.6 130.4 543.9 128.3 542.2C124.1 538.6 120.6 534.2 117.9 529.5C115.2 524.7 113.5 519.5 112.5 514.2C111.5 508.9 111.3 503.5 111.5 498.2C111.6 495.5 111.9 492.9 112.3 490.3C112.7 487.7 113.2 485.1 113.8 482.5C115 477.3 116.5 472.3 118.5 467.3L119.2 468C113.1 470.8 106.7 472.9 100 473.8C93.4 474.8 86.4 474.2 80.1 471.7L77.8 470.7L75.6 469.5C74.8 469.1 74.2 468.6 73.5 468.1C72.8 467.6 72.1 467.2 71.5 466.6L69.6 465L67.8 463.2C67.2 462.6 66.6 462 66.1 461.3C65.6 460.7 65 460.1 64.5 459.4C62.4 456.7 60.7 453.8 59.4 450.7C58.1 447.6 57.4 444.2 57.4 440.8C57.4 437.4 58.2 434 59.9 431C61.5 428 64 425.5 66.8 423.6L69 422.3C69.8 421.9 70.5 421.6 71.3 421.3C72.8 420.6 74.4 420.1 75.9 419.4C78.9 418.1 81.9 416.7 84.9 415.2C90.9 412.3 96.7 409.1 102.6 405.9C105.5 404.3 108.4 402.7 111.3 401L119.9 396.2Z" fill="#543930"/>
<path d="M359.2 226.5C355.8 226.5 350.4 225.3 345.6 222C341.9 219.5 342.2 216.4 342.7 214.8C343.5 212.2 345.9 210 348 210C348.5 210 348.9 210.1 349.3 210.4C349.4 210.5 349.8 211 350.4 211.6C351.5 214.2 351.7 216.5 351.7 216.6V216.9L358.2 220.1L358.4 220C358.4 220 360.2 219.1 362.5 218.4C364 219 365.2 221.5 364.6 224.2C364.4 225.7 362.3 226.5 359.2 226.5Z" fill="#DB957C"/>
<path d="M279.6 368.5C273.8 368.5 266.9 362.2 260.7 351.3C258.7 347.7 258.3 344.8 259.7 342.5C261.6 339.2 267.2 337.3 275.3 337.3C281 337.3 287.5 338.3 293.1 340C294.9 340.5 296 341.6 296.4 343.2C297.9 349.3 289.8 361.2 284.9 366.1C283.4 367.7 281.6 368.5 279.6 368.5Z" fill="#4E414F"/>
<path d="M275.3 337.9C281 337.9 287.4 338.9 293 340.5C294.6 341 295.6 341.9 296 343.4C297.5 349.2 289.4 361.1 284.6 365.9C283.2 367.3 281.5 368.1 279.6 368.1C274 368.1 267.1 361.8 261.2 351.2C259.3 347.8 258.9 345 260.2 342.9C261.9 339.7 267.5 337.9 275.3 337.9ZM275.3 336.9C263.5 336.9 254.3 340.9 260.3 351.6C266.8 363.2 273.9 369.1 279.6 369.1C281.7 369.1 283.7 368.3 285.3 366.6C291.3 360.6 303.3 342.6 293.3 339.6C287.7 337.9 281.2 336.9 275.3 336.9Z" fill="black"/>
<path d="M256.6 546C234.1 546 208.8 542.4 179.2 535C157.3 529.5 145.4 516.4 142.7 494.8C141 481.5 142.9 466.4 146.1 450.5C140.3 454.9 134.3 459.2 129.9 462C127.4 463.6 123.9 465.5 119.9 467.5L119.8 467.8C119.6 468.3 99.3 514.8 130.7 540.2C152.1 557.6 182.5 567.5 214.1 567.5C227.8 567.5 241.4 565.7 254.3 562.1C274.1 556.6 292 548.4 306.2 538.3C292 543.4 275.4 546 256.6 546Z" fill="#DB957C"/>
<path d="M94.1 473.3C82.7 473.3 73.1 468.6 65.6 459.2C58.6 450.4 56.5 440.5 60.1 432.7C64.9 429.5 70.4 427.8 75.9 427.8C83.6 427.8 90.8 431 96.8 436.9C104.6 444.7 106.6 455.5 106.7 455.6L106.8 456H107.2C107.3 456 108.5 456.1 110.7 456.1C117.6 456.1 133.8 456.4 148.7 448C142.7 453 132.3 460 119.9 467.1L120.2 466.5L119 467.1C110.1 471.2 101.7 473.3 94.1 473.3Z" fill="#DB957C"/>
<path d="M152.3 509.5C146.3 531.5 163.3 554.5 191.3 546.5C191.3 546.5 196.3 578.5 223.3 572.5C250.3 566.5 251.3 540.5 242.3 516.5C233.3 492.5 203.3 484.5 181.3 494.5" fill="#FBCA82"/>
<path d="M152.3 509.5C150.9 514.9 150.9 520.6 152.3 525.9C153.7 531.2 156.5 536.2 160.5 540C164.5 543.8 169.6 546.3 175 547.2C177.7 547.7 180.5 547.7 183.2 547.5C185.9 547.3 188.6 546.8 191.3 546.1L191.8 546L191.9 546.6C192.6 550.4 193.8 554.1 195.5 557.6C197.2 561.1 199.3 564.3 202.1 567C204.9 569.7 208.3 571.5 212 572.3C215.7 573.1 219.6 572.9 223.4 572C227.2 571.1 230.8 569.8 234.1 567.8C235.7 566.8 237.2 565.6 238.6 564.3C239.9 562.9 241.1 561.5 242.2 559.9C243.2 558.3 244 556.5 244.7 554.8C245.4 553 245.8 551.1 246.2 549.2C246.9 545.4 246.9 541.5 246.6 537.7C245.9 530 243.8 522.4 240.9 515.3C239.4 511.8 237.3 508.6 234.8 505.7C232.3 502.9 229.3 500.3 226.1 498.3C219.6 494.3 212 491.9 204.3 491.3C196.6 490.7 188.7 491.8 181.5 494.7C195.5 487.6 213.4 488.4 227 496.7C230.4 498.8 233.5 501.4 236.1 504.4C238.7 507.4 240.9 510.8 242.5 514.5C245.4 521.9 247.5 529.6 248.1 537.5C248.3 539.5 248.3 541.5 248.2 543.4C248.1 545.4 247.9 547.4 247.6 549.3C247.2 551.3 246.7 553.2 246 555.1C245.3 557 244.4 558.8 243.3 560.5C242.2 562.2 240.9 563.7 239.5 565.2C238 566.6 236.5 567.8 234.8 568.9C231.4 571 227.6 572.4 223.7 573.2C219.8 574.1 215.7 574.3 211.8 573.4C207.9 572.5 204.2 570.5 201.3 567.7C198.4 564.9 196.2 561.6 194.5 558C192.8 554.4 191.6 550.6 190.9 546.7L191.5 547.1C188.8 547.9 186 548.4 183.2 548.7C180.4 548.9 177.5 548.8 174.8 548.3C169.2 547.3 163.9 544.8 159.9 540.8C155.9 536.8 153.1 531.7 151.9 526.2C151.3 523.5 151 520.7 151.1 517.9C151 515 151.5 512.2 152.3 509.5Z" fill="#543930"/>
<path d="M216.8 572.8C196.1 572.8 191.8 546.8 191.8 546.5L191.7 545.9L191.2 546.1C187.5 547.2 183.8 547.7 180.3 547.7C166.9 547.7 152.8 538.4 151.4 521C157.7 530 169.6 530.7 182.3 530.7C184.6 530.7 186.9 530.5 189.1 530.2L189.6 530.1L189.5 529.6C189.5 529.5 187.9 519.9 195.4 518C197.6 517.4 199.6 517.2 201.5 517.2C212.6 517.2 219.7 526.8 222.8 545.6C224.6 556.9 224.2 565.9 221.4 572.4C219.8 572.6 218.3 572.8 216.8 572.8Z" fill="#DB957C"/>
<path d="M221.1 327C219.6 327.6 217.8 326.8 217.2 325.2C213.2 315.1 210.9 310.2 205.7 300.7C204.9 299.3 205.4 297.4 206.8 296.6C208.2 295.8 210.1 296.3 210.9 297.8C216.3 307.5 218.6 312.6 222.7 323C223.4 324.7 222.6 326.5 221.1 327Z" fill="black"/>
<path d="M287.8 345.1C283.5 345.1 272.4 344.7 260.9 341.1C263.5 338.7 268.6 337.4 275.3 337.4C280.6 337.4 286.4 338.2 291.7 339.6C291.2 342.1 290.3 344.3 290 345C289.6 345.1 288.9 345.1 287.8 345.1Z" fill="white"/>
<path d="M275.3 337.9C280.4 337.9 286 338.6 291.1 340C290.7 342 290 343.8 289.6 344.6C289.2 344.6 288.6 344.6 287.8 344.6C283.6 344.6 273 344.2 261.9 340.9C264.6 338.9 269.3 337.9 275.3 337.9ZM275.3 336.9C268.6 336.9 262.7 338.2 260 341.3C271.7 345.1 283 345.6 287.8 345.6C289.4 345.6 290.3 345.6 290.3 345.6C290.3 345.6 291.7 342.7 292.3 339.3C286.9 337.8 280.8 336.9 275.3 336.9Z" fill="black"/>
<path d="M263.2 344.6C262.7 346.6 264.9 348.7 264.9 352.3C264.7 362.3 273.7 366.7 279.1 368.4C283.1 356.2 276.9 348.6 263.2 344.6Z" fill="#B84242" stroke="black" stroke-miterlimit="10"/>
<path d="M212.3 337.5C200.3 345 204.3 360.5 215.3 365.5C226.3 370.5 260.3 384.5 273.3 365.5C286.3 346.5 293.3 327.5 286.3 312.5C279.3 297.5 271.1 309.2 272.4 319.6C273.3 326.5 264.3 346.5 250.3 342.5C236.3 338.5 220.3 332.5 212.3 337.5Z" fill="#F6EBE5"/>
<path d="M212.5 337.9C210.3 339.3 208.4 341.2 207.1 343.5C205.8 345.8 205.3 348.4 205.4 351C205.7 356.2 208.8 361.2 213.2 363.9C215.4 365.3 218 366.2 220.4 367.3C222.9 368.3 225.4 369.3 227.9 370.1C233 371.8 238.1 373.2 243.4 374C248.7 374.8 254.1 375 259.2 373.9C261.8 373.3 264.3 372.4 266.5 371.1C268.7 369.7 270.7 367.9 272.3 365.8C275.4 361.4 278.2 356.9 280.7 352.1C283.2 347.4 285.3 342.4 286.7 337.3C288.1 332.2 288.8 326.8 288.2 321.5C287.8 318.9 287.3 316.3 286.2 313.9C285.2 311.5 283.9 309 282.1 307.3C281.2 306.4 280 305.8 278.8 305.8C277.6 305.8 276.5 306.5 275.7 307.5C274.8 308.4 274.2 309.6 273.7 310.8C273.2 312 272.9 313.3 272.7 314.6C272.5 315.9 272.5 317.2 272.5 318.5L272.6 319.5C272.6 319.8 272.7 320.2 272.7 320.6C272.7 321.3 272.6 322 272.5 322.7C272.1 325.4 271.2 328 270 330.5C268.8 333 267.4 335.3 265.6 337.3C263.8 339.3 261.7 341.2 259.1 342.3C257.8 342.9 256.5 343.3 255.1 343.4C253.7 343.5 252.3 343.5 251 343.2C248.3 342.5 245.8 341.7 243.2 341C238.1 339.5 232.9 337.9 227.7 336.9C225.1 336.4 222.4 336 219.8 336.1C217.4 336.1 214.7 336.6 212.5 337.9ZM212.1 337.2C214.5 335.7 217.3 335.3 220.1 335.3C222.8 335.3 225.5 335.6 228.2 336.1C233.5 337.1 238.7 338.7 243.8 340.2C246.4 340.9 249 341.8 251.5 342.4C252.8 342.7 254.1 342.7 255.4 342.6C256.7 342.4 257.9 342.1 259.1 341.5C261.5 340.4 263.5 338.7 265.3 336.7C267 334.7 268.5 332.4 269.6 330C270.7 327.6 271.6 325.1 272 322.5C272.1 321.9 272.2 321.2 272.1 320.6C272.1 320.3 272.1 320 272 319.6L271.9 318.6C271.8 317.2 271.9 315.8 272.1 314.5C272.3 313.1 272.6 311.8 273.1 310.5C273.6 309.2 274.3 308 275.2 306.9C276.1 305.8 277.4 305 279 304.9C279.8 304.9 280.5 305.1 281.2 305.4C281.8 305.7 282.4 306.1 282.9 306.6C284.9 308.6 286.2 311 287.2 313.5C288.3 316 288.9 318.7 289.3 321.4C289.9 326.8 289.2 332.3 287.8 337.5C286.3 342.7 284.2 347.7 281.7 352.5C279.2 357.3 276.4 361.9 273.3 366.3C271.7 368.5 269.6 370.4 267.3 371.8C264.9 373.2 262.4 374.2 259.7 374.8C254.3 376 248.8 375.8 243.5 375C238.1 374.2 232.9 372.8 227.8 371.1C225.2 370.2 222.7 369.3 220.2 368.3C217.7 367.2 215.2 366.3 212.8 364.8C212.2 364.4 211.6 364 211.1 363.6L209.5 362.2C209 361.7 208.6 361.1 208.1 360.6C207.7 360 207.3 359.4 206.9 358.9C205.5 356.5 204.6 353.8 204.4 350.9C204.2 348.1 204.9 345.3 206.3 342.8C207.6 340.6 209.7 338.6 212.1 337.2Z" fill="#7D7774"/>
<path d="M251.8 374.7C239.3 374.7 225.1 369.5 215.5 365.1C210.1 362.6 206.2 357.4 205.6 351.7C208 349.9 211.6 348.9 215.8 348.9C220.2 348.9 225.1 350 230.2 352C240.3 356.1 249.2 359.6 256.5 359.6C261.8 359.6 265.6 357.7 268.1 353.8C271.7 348.2 276.1 345.7 279 345.7C280 345.7 280.8 346 281.4 346.6C282 347.3 282.3 348.4 282.1 349.8C279.7 354.7 276.6 359.9 273 365.2C268.6 371.5 261.5 374.7 251.8 374.7Z" fill="#E3D9D3"/>
<path d="M495.3 123.5C475.4 115.2 455.3 96.5001 433.3 104.5C411.3 112.5 411.3 134.5 403.3 154.5C395.3 174.5 383.3 206.5 404.3 219.5C425.3 232.5 492.3 270.5 519.3 276.5C546.3 282.5 560.3 275.5 569.3 255.5C578.3 235.5 601.3 200.5 578.3 181.5C555.3 162.5 507.3 128.5 495.3 123.5Z" fill="#F0F8FF"/>
<path d="M495 124.1C484 119.4 474.2 112.5 463.4 107.8C458 105.4 452.4 103.6 446.5 103.2C443.6 103 440.6 103.2 437.8 103.8C437.1 103.9 436.4 104.2 435.7 104.3C435 104.5 434.3 104.7 433.6 105C432.2 105.6 430.9 106.1 429.6 106.7C424.4 109.3 420 113.5 417 118.5C413.9 123.5 412 129.1 410.3 134.8C408.6 140.5 407.1 146.2 405 151.8C404 154.6 402.9 157.4 401.8 160.1C400.7 162.9 399.7 165.6 398.8 168.4C396.9 174 395.3 179.7 394.3 185.5C393.8 188.4 393.5 191.3 393.5 194.2C393.5 197.1 393.7 200 394.3 202.8C395.5 208.4 398.4 213.5 403 216.8C404.1 217.6 405.3 218.4 406.6 219.2L410.4 221.5C412.9 223 415.5 224.5 418 226C438.4 238 459.1 249.6 480.5 259.8C483.2 261.1 485.8 262.3 488.6 263.5C491.3 264.7 494 265.9 496.7 267L500.8 268.7L504.9 270.3C507.6 271.4 510.4 272.3 513.2 273.2C518.8 274.8 524.5 276 530.3 276.6C536.1 277.1 541.9 276.9 547.3 275.3C552.7 273.6 557.5 270.4 561 266L562.3 264.3L563.5 262.5C564.3 261.3 565 260 565.7 258.8C566.4 257.5 567 256.2 567.6 254.9C568.2 253.6 568.9 252.2 569.5 250.8C574.8 240.1 580.4 229.7 584 218.6C585.7 213 586.9 207.3 586.7 201.6C586.6 198.8 586.1 195.9 585.2 193.3C584.3 190.6 582.9 188.2 581.1 186C579.3 183.8 577.1 182 574.8 180.1C572.5 178.2 570.2 176.4 567.9 174.5C563.2 170.9 558.6 167.2 553.8 163.7C544.3 156.6 534.7 149.6 525 142.8C520.1 139.4 515.2 136.1 510.3 132.9C507.8 131.3 505.3 129.7 502.8 128.2C501.5 127.4 500.3 126.7 499 126C497.7 125.4 496.3 124.8 495 124.1ZM495.5 123C496.9 123.6 498.3 124.3 499.5 125C500.8 125.7 502.1 126.4 503.4 127.2C506 128.7 508.5 130.3 511 131.9C516 135.1 521 138.4 525.9 141.7C535.7 148.4 545.4 155.3 555 162.3C559.8 165.8 564.5 169.4 569.2 173C571.5 174.8 573.9 176.6 576.2 178.5C577.4 179.5 578.5 180.3 579.7 181.4C580.3 181.9 580.9 182.4 581.4 183L583 184.7C585 187.1 586.6 189.8 587.7 192.7C588.8 195.6 589.3 198.7 589.5 201.8C589.8 208 588.6 214 586.8 219.8C583.3 231.4 577.6 242 572.5 252.6C571.9 253.9 571.3 255.3 570.6 256.6C569.9 258 569.3 259.4 568.6 260.7C567.8 262 567.1 263.4 566.2 264.6L564.9 266.5L563.5 268.3C559.7 273.2 554.2 276.8 548.3 278.7C542.3 280.5 536.1 280.7 530 280C524 279.4 518.1 278.1 512.3 276.2C500.9 272.3 490.2 267.2 479.5 262C476.8 260.7 474.2 259.4 471.5 258C468.8 256.7 466.2 255.4 463.5 254C458.2 251.3 453 248.5 447.7 245.8C437.2 240.2 426.8 234.5 416.5 228.6C413.9 227.1 411.4 225.6 408.8 224.1L405 221.8C403.7 221.1 402.4 220.2 401.2 219.3C398.7 217.4 396.6 215 395.1 212.2C393.5 209.5 392.6 206.5 392.1 203.4C391.6 200.4 391.5 197.3 391.7 194.3C391.9 191.3 392.2 188.3 392.8 185.4C393.9 179.5 395.6 173.8 397.5 168.1C398.5 165.3 399.5 162.5 400.6 159.7C401.7 156.9 402.8 154.2 403.8 151.4C405.8 145.9 407.4 140.1 409.2 134.5C411 128.8 412.9 123.1 416.1 118C417 116.8 417.7 115.4 418.7 114.3L420.1 112.6L421.7 111C422.7 109.9 424 109.1 425.2 108.2C425.8 107.7 426.5 107.4 427.1 107L429.1 105.9C430.5 105.3 431.9 104.7 433.2 104.1C433.9 103.9 434.6 103.6 435.4 103.4C436.1 103.2 436.9 103 437.6 102.9C440.5 102.3 443.6 102.1 446.6 102.3C452.6 102.7 458.4 104.5 463.9 106.9C474.8 111.6 484.7 118.4 495.5 123Z" fill="#65686B"/>
<path d="M439.7 118C430.6 115.5 423.2 121.5 417 134.8C410.7 148.1 393.1 195.5 402.5 205.7C411.9 215.9 453.4 242.5 474.2 252.3C495 262.1 533 279.7 549 268.8C565.1 257.8 572.1 235.1 576 224.9C579.9 214.7 583.1 195.9 561.9 184.1C540.8 172.5 455.8 122.3 439.7 118Z" fill="#DDE4EB"/>
<path d="M578.3 181.5C555.3 162.5 507.3 128.5 495.3 123.5C475.4 115.2 455.3 96.5001 433.3 104.5C428.5 106.2 424.8 108.6 421.8 111.5C430 149.2 443.9 186.5 468.3 202.5C492.6 218.4 550.3 193.1 586.3 192.3C584.7 188.4 582.2 184.7 578.3 181.5Z" fill="#F0F8FF"/>
<path d="M577.9 182C572.1 177.2 566 172.6 560 168C554 163.4 547.8 159 541.7 154.6C529.4 145.8 516.9 137.1 504 129.4C500.7 127.5 497.5 125.7 494.1 124.2C490.6 122.7 487.2 121 483.8 119.2L473.8 113.8C470.5 112 467.2 110.2 463.8 108.7C460.4 107.1 456.9 105.8 453.3 104.9C449.7 104 446 103.5 442.3 103.7C438.6 103.8 435 104.8 431.6 106.2C428.2 107.6 424.9 109.5 422.2 112.1L422.3 111.6C424.2 120.8 426.5 129.9 429.2 138.8C432 147.7 435.2 156.5 439.1 165C443 173.5 447.8 181.6 453.7 188.9C454.4 189.8 455.2 190.7 455.9 191.6L458.3 194.1L459.5 195.4C459.9 195.8 460.4 196.2 460.8 196.6L463.4 198.9C464.3 199.7 465.3 200.3 466.2 201L467.6 202L468.3 202.5L469.1 202.9L470.6 203.8C471.1 204.1 471.7 204.3 472.2 204.5C473.2 205 474.4 205.3 475.5 205.7C480 207.1 484.7 207.5 489.3 207.6C494 207.7 498.7 207.3 503.3 206.8C512.6 205.7 521.8 203.8 530.9 201.8C540 199.8 549.2 197.6 558.3 195.8C567.5 193.9 576.7 192.2 586.2 191.9L585.7 192.6C584.2 188.4 581.4 184.8 577.9 182ZM578.6 181.1C579.5 181.8 580.4 182.6 581.2 183.4C582 184.2 582.8 185.1 583.5 186C584.3 186.9 585 187.8 585.6 188.8C586.3 189.8 586.9 190.8 587.4 191.9L588.4 193.7L586.2 193.8C577 193.9 567.7 195.4 558.5 197C549.3 198.7 540.2 200.8 531 202.7C526.4 203.7 521.8 204.5 517.2 205.4C512.6 206.2 507.9 207 503.3 207.5C498.6 208 493.9 208.3 489.2 208.2C484.5 208.1 479.8 207.6 475.3 206.2C474.2 205.8 473.1 205.5 472 204.9C471.5 204.7 470.9 204.4 470.4 204.2L468.9 203.3L468.1 202.9L467.4 202.4L466 201.4C465.1 200.7 464.1 200.1 463.2 199.3L460.6 197C460.2 196.6 459.7 196.2 459.3 195.8L458.1 194.5L455.7 192C454.9 191.1 454.2 190.2 453.4 189.3C447.4 182 442.7 173.9 438.7 165.4C434.7 156.9 431.5 148.1 428.7 139.1C425.9 130.2 423.5 121.1 421.4 111.9L421.3 111.6L421.5 111.4C427 105.9 434.4 102.5 442.2 102C446.1 101.7 450 102.1 453.8 103C457.6 103.9 461.2 105.2 464.7 106.7C471.8 109.7 478.3 113.7 484.9 117.3C488.2 119.1 491.5 120.9 495 122.4C496.7 123.2 498.5 124 500.2 125C501.9 125.9 503.5 126.9 505.1 127.9C511.6 131.9 517.8 136.2 524.1 140.5C530.3 144.8 536.5 149.2 542.6 153.7C554.7 162.5 566.9 171.5 578.6 181.1Z" fill="#65686B"/>
<path d="M479.3 218.5C489.241 218.5 497.3 210.889 497.3 201.5C497.3 192.111 489.241 184.5 479.3 184.5C469.359 184.5 461.3 192.111 461.3 201.5C461.3 210.889 469.359 218.5 479.3 218.5Z" fill="#964545" stroke="#421E1E" stroke-miterlimit="10"/>
<path d="M321.3 166.5L317.3 180.5L348.3 182.5L349.3 173.5L321.3 166.5Z" fill="white"/>
<path d="M368.4 116.1L357.9 123.8L375.6 150L383.2 144.4L368.4 116.1Z" fill="white"/>
<path d="M422.6 312.8L418.6 343.8L434.6 344.8L432.6 313.8L422.6 312.8Z" fill="white"/>
<path d="M501.9 298.9L492.9 302.9L500.9 325.9L514.9 321.9L501.9 298.9Z" fill="white"/>
<path d="M119.1 467.1C126 463.7 132.6 459.9 139 455.6C142.2 453.4 145.3 451.2 148.2 448.7C151.1 446.2 154.1 443.7 156.3 440.6C154.1 443.8 151.2 446.4 148.3 448.9C145.4 451.4 142.3 453.8 139.2 456C132.9 460.5 126.3 464.5 119.5 468L119.1 467.1Z" fill="#543930"/>
<path d="M190.8 546.7C190.4 545.5 190.1 544.2 189.9 542.9C189.7 541.6 189.6 540.4 189.5 539.1C189.3 536.6 189.3 534 189.3 531.5C189.4 534 189.6 536.6 190 539.1C190.2 540.3 190.4 541.6 190.7 542.8C191 544 191.3 545.2 191.8 546.3L190.8 546.7Z" fill="black"/>
<path d="M475.3 190.5C470.8 193.5 466 196.8 466.6 201.7C467.3 206.5 467.3 211.5 474.3 212.5C481.3 213.5 488.3 214.5 490.3 208.5C492.3 202.5 494.3 194.5 489.3 192.5C484.3 190.5 478.3 188.5 475.3 190.5Z" fill="#6E3232" stroke="#421E1E" stroke-miterlimit="10"/>
<path d="M162.8 336C146.8 314 124.8 309 108.8 316C92.8 323 75.8 350 79.8 376C83.8 402 82.8 412 77.8 424C72.8 436 85.8 454 101.8 437C101.8 437 127.8 450 144.8 426C161.8 402 152.8 374 152.8 374" fill="#FBCA82"/>
<path d="M162.8 336L160.6 333.3C160.2 332.9 159.9 332.4 159.5 332L158.3 330.7C157.5 329.9 156.7 329 155.9 328.2L153.3 325.9C149.8 322.9 145.9 320.4 141.8 318.3C133.6 314.2 124 312.8 115.2 315C106.3 317 99.1 323.3 93.7 330.5C91 334.1 88.6 338.1 86.7 342.2C84.8 346.3 83.2 350.6 82.2 355.1L81.8 356.8L81.5 358.5C81.3 359.6 81.1 360.7 81 361.9C80.8 364.2 80.6 366.4 80.7 368.7C80.6 371 81 373.2 81.2 375.5C81.5 377.8 81.9 380.1 82.2 382.4C82.8 387 83.3 391.7 83.6 396.4C83.8 401.1 83.7 405.9 83 410.6C82.6 413 82.1 415.3 81.4 417.6C80.7 419.9 79.9 422.1 79 424.3C77.3 428.3 77.6 433 79.6 436.9C80.1 437.9 80.7 438.8 81.4 439.6C82.1 440.4 82.9 441.1 83.8 441.7C84.7 442.3 85.7 442.7 86.7 443C87.7 443.3 88.8 443.4 89.9 443.2C92.1 443 94.2 442.2 96.1 441C98 439.8 99.8 438.3 101.4 436.7L101.7 436.4L102 436.5C105.8 438.2 110 439.3 114.2 439.8C118.4 440.2 122.7 440 126.7 438.8C128.7 438.2 130.7 437.4 132.5 436.4C134.4 435.4 136.1 434.2 137.7 432.9C140.9 430.2 143.7 426.9 145.8 423.2C148.2 419.7 149.8 415.7 151.3 411.8C152.6 407.8 153.6 403.6 154.1 399.4C155 391 154.5 382.3 152.2 374.1L153.2 373.8C155.5 382.2 156.1 390.9 155.2 399.5C154.7 403.8 153.7 408 152.4 412.1C150.9 416.1 149.2 420.1 146.8 423.7C144.6 427.4 141.8 430.8 138.5 433.6C136.8 435 135 436.2 133.1 437.3C131.2 438.3 129.1 439.1 127.1 439.7C122.9 440.9 118.5 441.2 114.2 440.7C109.9 440.2 105.7 439.2 101.7 437.3L102.3 437.2C100.7 438.9 99 440.6 97 441.9C95 443.2 92.7 444.2 90.2 444.5C87.7 444.8 85.1 444.3 83 443C81.9 442.4 80.9 441.6 80.1 440.6C79.3 439.7 78.5 438.7 77.9 437.6C75.5 433.3 75 427.9 77 423.2C77.9 421.1 78.6 418.9 79.2 416.7C79.8 414.5 80.3 412.3 80.6 410C81.2 405.5 81.2 400.9 80.9 396.3C80.6 391.7 80.1 387.1 79.5 382.5C79.2 380.2 78.8 377.9 78.5 375.6C78.3 373.2 77.9 370.9 78 368.5C77.9 366.1 78.2 363.7 78.3 361.4C78.4 360.2 78.7 359 78.8 357.9L79.1 356.1L79.5 354.4C80.5 349.8 82.2 345.3 84.2 341C86.2 336.7 88.7 332.6 91.6 328.9C94.5 325.1 97.8 321.6 101.7 318.8C102.6 318.1 103.7 317.5 104.7 316.8C105.2 316.5 105.7 316.2 106.3 315.9L107.9 315.1C109 314.6 110.1 314.2 111.3 313.8C112.4 313.4 113.6 313.2 114.8 312.8C124.2 310.7 134.1 312.6 142.4 317C146.6 319.2 150.4 322 153.8 325.2C157.1 328.6 160.1 332.2 162.8 336Z" fill="#543930"/>
<path d="M88.9 443.5C85.3 443.5 82.1 441.6 79.8 438.3C77 434.2 76.4 428.6 78.3 424.3C80 420.1 81.7 416.8 82.4 413.1C86.4 416.6 89.9 418.2 93.8 418.2C96.9 418.2 100 417 102.7 414.9C104.1 416.7 110 423.6 119.6 423.6C123.3 423.6 127.1 422.6 131 420.7C143.6 414.4 150.7 409.7 153.9 401.9C152.6 410.8 149.4 418.9 144.3 425.9C137.6 435.4 128.7 440.2 117.9 440.2C109 440.2 102 436.8 102 436.7L101.7 436.5L101.4 436.8C97.2 441.2 92.9 443.5 88.9 443.5Z" fill="#DB957C"/>
<path d="M197.1 338C196.8 341.3 192.6 342.6 187.7 342.1C182.8 341.6 178.9 339.6 179.2 336.3C179.5 333 183.7 331.7 188.6 332.2C193.6 332.7 197.4 334.7 197.1 338Z" fill="#DB957C"/>
<path d="M449.9 106.4C449.9 106.4 495.2 127.5 509.2 136.7C523.2 145.9 564.1 173.4 562.9 176.7C561.6 180 551.3 174.9 543.1 168.3C526.4 154.9 468.1 120.2 451.4 114.1C445.1 111.8 446.5 107.2 449.9 106.4Z" fill="white"/>
<path d="M472.4 186.9C468.6 188.4 467.9 190.2 468.6 191C469.3 191.8 472.2 189.7 474.1 188.7C475.9 187.7 480 186.9 483.3 188.2C486.6 189.5 487.3 189.3 487.5 188.7C487.7 188.1 485.4 186.1 481.6 185.7C477.8 185.2 474.8 185.9 472.4 186.9Z" fill="#CF7676"/>
<path d="M489.5 190.6C489.997 190.6 490.4 190.242 490.4 189.8C490.4 189.358 489.997 189 489.5 189C489.003 189 488.6 189.358 488.6 189.8C488.6 190.242 489.003 190.6 489.5 190.6Z" fill="#CF7676"/>
<path d="M535.449 249.84L497.087 231.091L493.706 238.008L532.068 256.758L535.449 249.84Z" fill="#A8ADB3"/>
<path d="M279 177.7C285.5 180.6 289.5 187.8 289.8 195C290.1 202.1 287.2 209.1 282.9 214.9C280.4 218.2 277.4 221.3 273.8 223.3C270.2 225.3 266.6 226.2 262.6 225C259.7 231.7 251.9 234.6 244.9 236.5C234.6 239.3 223.8 241.4 213.5 238.9C203.2 236.4 194.2 228.9 193.3 218.3C184.2 219 174.9 219.1 166.2 216.7C157.4 214.2 149.1 208.9 144.9 200.8C138.3 188.4 142.9 172.5 151.4 161.4C161.5 148.2 178 139.2 194.6 141C201.8 132.8 213.7 130.7 224.6 130.8C235.6 130.9 246.7 132.7 256.7 137.2C266.7 141.7 275.6 149.2 280.9 158.8C284.1 164.7 282.8 171.9 279 177.7Z" fill="white"/>
<path d="M166.5 247C168.7 257.2 162.1 263.8 150.7 266.2C139.3 268.6 127.4 265.9 125.3 255.7C123.1 245.5 131.9 238.4 143.2 236C154.5 233.6 164.3 236.8 166.5 247Z" fill="white"/>
<path d="M558 366.1C560.2 376.3 553.6 382.9 542.2 385.3C530.8 387.7 518.9 385 516.8 374.8C514.6 364.6 523.4 357.5 534.7 355.1C546.1 352.7 555.9 355.9 558 366.1Z" fill="white"/>
<path d="M490.4 428.4C489 433.4 485.1 437.3 480.8 440.2C474.7 444.4 467.4 447 460 447.2C452.6 447.5 446.7 441.9 439.3 441C433.2 440.3 427.2 438 422.2 434.5C418.2 431.7 414.6 427.9 413.3 423.2C411.7 417.6 413.6 411.7 416.2 406.6C418 403.2 420.1 399.5 423.7 398C422.9 390.6 424.7 382.9 428.6 376.5C432.5 370.1 438.6 365.2 445.6 362.5C449.5 361 452.8 358.4 457 358.4C470.3 358.3 483.2 366.7 488.7 378.8C490.8 383.4 491.7 389.1 488.9 393.2C496.3 394.7 502.4 400.7 505.1 407.7C506 410.1 506.7 412.6 506.7 415.2C506.7 419.2 505 423.1 502.1 425.9C499.2 428.7 494.3 428.6 490.4 428.4Z" fill="white"/>
<path d="M190.6 218.4C190 213.1 190.8 207.9 192.5 203.1C194.2 198.3 196.8 193.8 200.4 190.1C202.2 188.3 204.3 186.8 206.5 185.5C208.7 184.3 211.4 183.5 214 183.7C216.6 183.8 219.1 184.7 221.4 185.9C223.6 187.1 225.7 188.6 227.5 190.3C229.4 192 231.1 193.9 232.4 196.1C233.7 198.3 234.6 200.8 234.8 203.3C235 208.5 231.8 213.5 227.4 215.9C225.1 217.1 222.5 217.7 220 217.2C219.7 217.1 219.4 217.1 219 216.9C218.7 216.8 218.4 216.6 218.1 216.5C217.6 216.3 217 216.1 216.4 216C215.2 215.7 214 215.4 212.8 214.6C212.5 214.4 212.3 214.1 212.1 213.8C211.9 213.5 211.8 213.3 211.6 213C211.3 212.4 211 211.9 210.7 211.3C210.2 210.2 209.7 209 209.4 207.8C209.3 207.5 209.2 207.1 209.2 206.7C209.2 206.3 209.3 206 209.4 205.7C209.6 205.1 209.9 204.5 210.2 203.9C210.8 202.8 211.6 201.8 212.4 200.8L213.2 201.4C212.4 202.3 211.7 203.3 211.1 204.3C210.5 205.3 210.1 206.4 210.4 207.4C210.7 208.5 211.2 209.7 211.7 210.8C212 211.3 212.2 211.9 212.5 212.4C212.6 212.7 212.8 212.9 213 213.2C213.1 213.4 213.3 213.6 213.5 213.7C214.3 214.3 215.5 214.6 216.7 214.9C217.3 215.1 217.9 215.2 218.5 215.5C218.8 215.6 219.1 215.8 219.3 215.8C219.6 215.9 219.8 216 220.1 216C222.3 216.4 224.8 215.8 226.8 214.7C230.9 212.5 233.7 207.9 233.5 203.2C233.4 200.9 232.5 198.6 231.3 196.6C230.1 194.6 228.4 192.8 226.6 191.2C224.8 189.6 222.8 188.2 220.7 187.1C218.6 186 216.3 185.3 214 185.2C211.7 185.1 209.4 185.8 207.4 186.9C205.3 188.1 203.4 189.5 201.7 191.2C198.4 194.6 195.9 198.9 194.5 203.5C193.1 208.1 192.5 213 193.1 217.8L190.6 218.4Z" fill="#D9E1E8"/>
<path d="M422.9 396.8C425.9 394.8 429.5 394.6 432.7 395.2C435.9 395.9 438.8 397.4 441.4 399.1C444 400.8 446.6 402.8 448.5 405.4C449.5 406.7 450.3 408.2 450.7 409.8C451.2 411.4 451.3 413.2 451 414.8C450.5 418.1 448.7 421.2 445.9 423.1C443.2 425.1 439.6 425.7 436.4 425.2C433.2 424.6 430.1 422.9 428.2 420.1C427.7 419.4 427.4 418.5 427.3 417.5C427.2 416.6 427.4 415.7 427.8 414.8C428.5 413.2 429.9 411.8 431.7 411.3L432.1 413.1C431 413.4 429.9 414.3 429.4 415.4C429.2 416 429 416.6 429.1 417.2C429.1 417.8 429.3 418.4 429.7 419C430.4 420.1 431.5 421.1 432.7 421.9C433.9 422.7 435.3 423.1 436.7 423.4C439.5 423.9 442.5 423.4 444.9 421.7C447.2 420 448.9 417.4 449.3 414.5C449.5 413.1 449.4 411.6 449.1 410.2C448.7 408.8 448 407.5 447.2 406.3C445.4 403.9 443.1 402 440.5 400.3C438 398.7 435.3 397.2 432.3 396.5C429.4 395.9 426.1 396.1 423.6 397.8L422.9 396.8Z" fill="#D9E1E8"/>
<path d="M537.7 95.5C532.4 97.2 527.5 100.3 524.5 105C521.5 109.6 520.7 115.9 523.3 120.7C524.5 122.9 526.2 124.7 528.3 126.1C531.6 128.4 535.6 129.6 539.5 129.5C543.2 129.5 547 128.3 549.6 125.7C552.2 123.1 553.6 119.1 552.3 115.6C551.1 112.1 547.1 109.7 543.6 110.7" stroke="#D9E1E8" stroke-miterlimit="10"/>
<path d="M213.897 310.695L208.118 312.939L209.566 316.668L215.345 314.424L213.897 310.695Z" fill="white"/>
</g>
<defs>
<linearGradient id="paint0_linear" x1="364.875" y1="353.016" x2="377.574" y2="340.317" gradientUnits="userSpaceOnUse">
<stop stop-color="#FBCA82"/>
<stop offset="1" stop-color="#FBDB83"/>
</linearGradient>
<linearGradient id="paint1_linear" x1="196.462" y1="448.047" x2="465.01" y2="194.128" gradientUnits="userSpaceOnUse">
<stop stop-color="#FBCA82"/>
<stop offset="1" stop-color="#FBDB83"/>
</linearGradient>
<clipPath id="clip0">
<rect width="674.4" height="707.4" fill="white"/>
</clipPath>
</defs>
</svg>
