<svg width="12" height="13" viewBox="0 0 12 13" fill="none" xmlns="http://www.w3.org/2000/svg">
<path fill-rule="evenodd" clip-rule="evenodd" d="M9.14984 0.167213C10.5693 0.380513 11.7667 1.48128 11.9516 2.87808C12.0321 3.70898 11.9922 4.95747 11.9729 5.56415C11.968 5.71503 11.9645 5.82622 11.9644 5.88141C11.9644 5.96295 11.9527 6.70743 11.9481 6.78602C11.8237 8.78194 10.5995 9.57015 9.31318 9.82126C9.29925 9.82551 9.28346 9.82863 9.2673 9.83182C9.26323 9.83262 9.25914 9.83343 9.25505 9.83426C8.43952 9.99616 7.56587 10.0393 6.73697 10.0629C6.53879 10.0682 6.34119 10.0682 6.14302 10.0682H6.14291C5.31876 10.0685 4.49749 9.96929 3.69633 9.77281C3.69208 9.77169 3.68763 9.7716 3.68335 9.77256C3.67906 9.77351 3.67506 9.77547 3.67166 9.7783C3.66826 9.78112 3.66557 9.78471 3.66379 9.78879C3.66202 9.79287 3.66122 9.79731 3.66145 9.80176C3.6841 10.0669 3.74077 10.3279 3.83002 10.5782C3.94104 10.8677 4.32875 11.5631 5.77031 11.5631C6.60796 11.5647 7.44286 11.4655 8.25759 11.2677C8.26173 11.2667 8.26602 11.2667 8.27017 11.2676C8.27432 11.2686 8.2782 11.2704 8.28155 11.2731C8.28489 11.2758 8.28761 11.2792 8.2895 11.283C8.29138 11.2869 8.2924 11.2911 8.29246 11.2955V12.2751C8.29231 12.2797 8.29113 12.2842 8.28902 12.2883C8.2869 12.2924 8.28391 12.296 8.28026 12.2987C8.02556 12.4864 7.68309 12.5967 7.38313 12.6934C7.36955 12.6978 7.35605 12.7021 7.34266 12.7064C7.20625 12.7502 7.0681 12.7886 6.92821 12.8216C5.65656 13.1161 4.32938 13.0449 3.09529 12.616C1.94262 12.2048 0.766121 11.1968 0.475483 9.98552C0.320274 9.32968 0.210915 8.6635 0.148226 7.99196C0.0823574 7.25761 0.0603482 6.522 0.0383084 5.78538C0.0300068 5.50792 0.0217009 5.23032 0.0110452 4.95258C-0.0162747 4.24473 -0.000580304 3.47307 0.146482 2.77704C0.452233 1.3637 1.71244 0.374605 3.09238 0.167213C3.12074 0.162945 3.15207 0.157343 3.18876 0.150782C3.46186 0.101943 4.03192 0 5.8854 0H5.9011C8.00299 0 8.91036 0.131171 9.14984 0.167213ZM9.91361 7.91751V4.44739C9.914 3.73797 9.73632 3.17468 9.38058 2.75754C9.01205 2.34098 8.53018 2.12709 7.93263 2.12709C7.24149 2.12709 6.71834 2.3977 6.36958 2.93834L6.03244 3.51266L5.69588 2.93834C5.34712 2.3977 4.82397 2.12709 4.13167 2.12709C3.53354 2.12709 3.05167 2.34098 2.6843 2.75754C2.32817 3.17508 2.15011 3.73836 2.15011 4.44739V7.91751H3.50215V4.54961C3.50215 3.84058 3.7957 3.47898 4.38337 3.47898C5.03323 3.47898 5.35932 3.90676 5.35932 4.75169V6.59517H6.70381V4.75169C6.70381 3.90676 7.02933 3.47898 7.67919 3.47898C8.27035 3.47898 8.56098 3.84058 8.56098 4.54961V7.91751H9.91361Z" fill="black"/>
</svg>
