<?xml version="1.0" encoding="UTF-8"?>
<!--Generator: Apple Native CoreSVG 175.5-->
<!DOCTYPE svg
PUBLIC "-//W3C//DTD SVG 1.1//EN"
       "http://www.w3.org/Graphics/SVG/1.1/DTD/svg11.dtd">
<svg version="1.1" xmlns="http://www.w3.org/2000/svg" xmlns:xlink="http://www.w3.org/1999/xlink" width="44.3701" height="44.3897">
 <g>
  <rect height="44.3897" opacity="0" width="44.3701" x="0" y="0"/>
  <path d="M10.3491 39.1187L14.5874 39.1187C14.978 39.1187 15.271 39.2358 15.564 39.5288L18.5718 42.5171C21.0327 44.9976 23.3179 44.978 25.7788 42.5171L28.7866 39.5288C29.0991 39.2358 29.3726 39.1187 29.7827 39.1187L34.0015 39.1187C37.4976 39.1187 39.1187 37.5171 39.1187 34.0015L39.1187 29.7827C39.1187 29.3726 39.2358 29.0991 39.5288 28.7866L42.5171 25.7788C44.9976 23.3179 44.978 21.0327 42.5171 18.5718L39.5288 15.564C39.2358 15.271 39.1187 14.978 39.1187 14.5874L39.1187 10.3491C39.1187 6.87257 37.5171 5.23194 34.0015 5.23194L29.7827 5.23194C29.3726 5.23194 29.0991 5.13428 28.7866 4.84132L25.7788 1.85303C23.3179-0.627434 21.0327-0.607903 18.5718 1.85303L15.564 4.84132C15.271 5.13428 14.978 5.23194 14.5874 5.23194L10.3491 5.23194C6.85303 5.23194 5.23194 6.8335 5.23194 10.3491L5.23194 14.5874C5.23194 14.978 5.13428 15.271 4.84132 15.564L1.85303 18.5718C-0.627434 21.0327-0.607903 23.3179 1.85303 25.7788L4.84132 28.7866C5.13428 29.0991 5.23194 29.3726 5.23194 29.7827L5.23194 34.0015C5.23194 37.4976 6.85303 39.1187 10.3491 39.1187ZM19.9976 31.7163C19.3335 31.7163 18.7866 31.4624 18.2788 30.7788L13.3765 24.7632C13.0835 24.3726 12.9077 23.9233 12.9077 23.4937C12.9077 22.5952 13.5913 21.8726 14.4898 21.8726C15.0366 21.8726 15.4663 22.0679 15.9546 22.7124L19.9194 27.8296L28.2593 14.4312C28.6304 13.8257 29.1382 13.5327 29.6655 13.5327C30.5054 13.5327 31.3062 14.1187 31.3062 15.0171C31.3062 15.4663 31.0523 15.9155 30.8179 16.3062L21.6382 30.7788C21.228 31.4038 20.6616 31.7163 19.9976 31.7163Z" fill="#ffffff" fill-opacity="0.85"/>
 </g>
</svg>
