<?xml version="1.0" encoding="UTF-8"?>
<!--Generator: Apple Native CoreSVG 175.5-->
<!DOCTYPE svg
PUBLIC "-//W3C//DTD SVG 1.1//EN"
       "http://www.w3.org/Graphics/SVG/1.1/DTD/svg11.dtd">
<svg version="1.1" xmlns="http://www.w3.org/2000/svg" xmlns:xlink="http://www.w3.org/1999/xlink" width="44.3506" height="44.5459">
 <g>
  <rect height="44.5459" opacity="0" width="44.3506" x="0" y="0"/>
  <path d="M10.3491 39.1187L14.5679 39.1187C14.978 39.1187 15.271 39.2358 15.564 39.5288L18.5718 42.5171C21.0327 44.9976 23.3179 44.978 25.7788 42.5171L28.7866 39.5288C29.0796 39.2358 29.3726 39.1187 29.7827 39.1187L34.0015 39.1187C37.4976 39.1187 39.1187 37.5171 39.1187 34.0015L39.1187 29.7827C39.1187 29.3726 39.2358 29.0991 39.5288 28.7866L42.4976 25.7788C44.978 23.3179 44.9585 21.0523 42.4976 18.5718L39.5288 15.564C39.2358 15.271 39.1187 14.978 39.1187 14.5874L39.1187 10.3491C39.1187 6.87257 37.5171 5.23194 34.0015 5.23194L29.7827 5.23194C29.3726 5.23194 29.0796 5.13428 28.7866 4.84132L25.7788 1.85303C23.3179-0.627434 21.0327-0.607903 18.5718 1.85303L15.564 4.84132C15.271 5.13428 14.978 5.23194 14.5679 5.23194L10.3491 5.23194C6.85303 5.23194 5.23194 6.8335 5.23194 10.3491L5.23194 14.5874C5.23194 14.978 5.13428 15.271 4.84132 15.564L1.85303 18.5718C-0.627434 21.0523-0.607903 23.3179 1.85303 25.7788L4.84132 28.7866C5.13428 29.0991 5.23194 29.3726 5.23194 29.7827L5.23194 34.0015C5.23194 37.4976 6.85303 39.1187 10.3491 39.1187ZM10.3491 36.0132C8.61085 36.0132 8.33741 35.7398 8.33741 34.0015L8.33741 28.7476C8.33741 28.1616 8.16163 27.7124 7.73194 27.2827L4.04053 23.6108C2.81007 22.3608 2.81007 22.0093 4.04053 20.7593L7.73194 17.0874C8.16163 16.6577 8.33741 16.2085 8.33741 15.603L8.33741 10.3491C8.33741 8.59132 8.59132 8.33741 10.3491 8.33741L15.603 8.33741C16.2085 8.33741 16.6577 8.18116 17.0874 7.73194L20.7593 4.04053C22.0093 2.81007 22.3608 2.81007 23.5913 4.04053L27.2827 7.73194C27.6929 8.18116 28.1616 8.33741 28.7476 8.33741L34.0015 8.33741C35.7398 8.33741 36.0132 8.61085 36.0132 10.3491L36.0132 15.603C36.0132 16.2085 36.2085 16.6577 36.6382 17.0874L40.3296 20.7593C41.5601 22.0093 41.5601 22.3608 40.3296 23.6108L36.6382 27.2827C36.2085 27.7124 36.0132 28.1616 36.0132 28.7476L36.0132 34.0015C36.0132 35.7398 35.7398 36.0132 34.0015 36.0132L28.7476 36.0132C28.1616 36.0132 27.6929 36.189 27.2827 36.6382L23.5913 40.3296C22.3608 41.5601 22.0093 41.5601 20.7593 40.3296L17.0874 36.6382C16.6577 36.189 16.2085 36.0132 15.603 36.0132ZM20.0562 31.4429C20.7007 31.4429 21.2476 31.1304 21.6382 30.5444L30.564 16.4819C30.7788 16.1108 31.0327 15.6812 31.0327 15.2319C31.0327 14.3726 30.2515 13.8062 29.4507 13.8062C28.9429 13.8062 28.4546 14.0991 28.0835 14.6851L19.978 27.6929L16.1304 22.7124C15.6616 22.0874 15.2319 21.9116 14.7046 21.9116C13.8452 21.9116 13.1812 22.5952 13.1812 23.4741C13.1812 23.8843 13.3569 24.314 13.6304 24.6851L18.396 30.5444C18.8843 31.189 19.4116 31.4429 20.0562 31.4429Z" fill="#ffffff" fill-opacity="0.85"/>
 </g>
</svg>
