<svg width="18" height="20" viewBox="0 0 18 20" fill="none" xmlns="http://www.w3.org/2000/svg">
<path d="M17.9274 4.42781C17.6501 2.2789 15.854 0.585405 13.7248 0.257251C13.3655 0.201801 12.0045 0 8.85165 0H8.82811C5.6744 0 4.9978 0.201801 4.63857 0.257251C2.56865 0.576315 0.678349 2.098 0.219723 4.27237C-0.000870456 5.34319 -0.0244121 6.53036 0.0165678 7.61936C0.0749859 9.18104 0.0863207 10.74 0.222339 12.2953C0.316372 13.3285 0.48041 14.3534 0.713225 15.3623C1.14918 17.2258 2.91393 18.7766 4.64293 19.4093C6.49407 20.0691 8.48484 20.1786 10.3923 19.7256C10.6022 19.6747 10.8094 19.6156 11.014 19.5484C11.4778 19.3947 12.021 19.2229 12.4204 18.9211C12.4259 18.9169 12.4304 18.9114 12.4335 18.9051C12.4367 18.8988 12.4385 18.8919 12.4387 18.8848V17.3776C12.4386 17.371 12.4371 17.3644 12.4342 17.3585C12.4314 17.3525 12.4273 17.3473 12.4223 17.3432C12.4173 17.3391 12.4115 17.3363 12.4053 17.3348C12.399 17.3334 12.3926 17.3334 12.3864 17.3349C11.1643 17.6392 9.91194 17.7918 8.65547 17.7894C6.49313 17.7894 5.91156 16.7195 5.74503 16.2741C5.61116 15.8891 5.52616 15.4876 5.49217 15.0796C5.49182 15.0728 5.49303 15.0659 5.49569 15.0597C5.49835 15.0534 5.5024 15.0479 5.50749 15.0435C5.51259 15.0392 5.5186 15.0362 5.52502 15.0347C5.53145 15.0332 5.53812 15.0334 5.54449 15.0351C6.74623 15.3374 7.97814 15.4899 9.21436 15.4896C9.51169 15.4896 9.80814 15.4896 10.1055 15.4814C11.3488 15.4451 12.6593 15.3787 13.8826 15.1296C13.9131 15.1233 13.9436 15.1178 13.9698 15.1096C15.8993 14.7233 17.7356 13.5107 17.9221 10.44C17.9291 10.3191 17.9466 9.17377 17.9466 9.04833C17.9474 8.622 18.0782 6.02404 17.9274 4.42781Z" fill="#6364FF"/>
<path d="M14.8705 6.84215V12.1808H12.8415V6.99941C12.8415 5.90859 12.4056 5.35228 11.5188 5.35228C10.544 5.35228 10.0558 6.0104 10.0558 7.31029V10.1464H8.03904V7.31029C8.03904 6.0104 7.5499 5.35228 6.5751 5.35228C5.6936 5.35228 5.25329 5.90859 5.25329 6.99941V12.1808H3.22522V6.84215C3.22522 5.75133 3.49232 4.88474 4.02651 4.24237C4.57755 3.60152 5.30037 3.27245 6.19757 3.27245C7.23601 3.27245 8.02073 3.68878 8.54388 4.52053L9.04872 5.40409L9.55443 4.52053C10.0776 3.68878 10.8623 3.27245 11.899 3.27245C12.7953 3.27245 13.5181 3.60152 14.0709 4.24237C14.6045 4.88414 14.8711 5.75073 14.8705 6.84215Z" fill="white"/>
</svg>
